<svg width="20" height="20" viewBox="0 0 20 20" fill="none" xmlns="http://www.w3.org/2000/svg">
<path d="M10.238 0C13.3824 0 16.2938 1.395 18.2244 3.744C18.2794 3.81059 18.3205 3.88756 18.3451 3.97033C18.3698 4.05311 18.3775 4.14 18.3679 4.22583C18.3583 4.31167 18.3315 4.39469 18.2892 4.46997C18.2469 4.54524 18.1898 4.61123 18.1214 4.664C17.9823 4.7731 17.8061 4.82368 17.6303 4.80501C17.4544 4.78634 17.2928 4.69989 17.1796 4.564C16.3354 3.54122 15.2748 2.71863 14.0742 2.15557C12.8736 1.59251 11.563 1.30302 10.237 1.308C5.32296 1.308 1.33874 5.2 1.33874 10C1.33874 14.8 5.32296 18.692 10.237 18.692C11.5821 18.6971 12.9111 18.3993 14.1255 17.8206C15.3398 17.2419 16.4083 16.3971 17.2516 15.349C17.3629 15.2117 17.5232 15.1231 17.6986 15.102C17.8741 15.0809 18.0508 15.129 18.1914 15.236C18.2604 15.2879 18.3182 15.3531 18.3615 15.4277C18.4048 15.5024 18.4326 15.585 18.4433 15.6706C18.454 15.7563 18.4474 15.8432 18.4239 15.9262C18.4004 16.0093 18.3604 16.0867 18.3064 16.154C16.3788 18.564 13.4284 20 10.238 20C4.5821 20 0 15.523 0 10C0 4.477 4.5831 0 10.238 0ZM17.0946 7.16L19.8001 9.867C20.0621 10.128 20.0671 10.547 19.8121 10.803L17.1686 13.446C17.0432 13.5688 16.8741 13.6367 16.6986 13.6348C16.5232 13.6329 16.3556 13.5614 16.2328 13.436C16.1705 13.3752 16.1208 13.3028 16.0865 13.2228C16.0522 13.1428 16.0341 13.0568 16.033 12.9698C16.032 12.8828 16.0482 12.7964 16.0806 12.7156C16.113 12.6348 16.161 12.5612 16.2218 12.499L17.7685 10.952H7.46053C7.37362 10.9531 7.28734 10.937 7.20663 10.9047C7.12593 10.8724 7.05237 10.8245 6.99017 10.7638C6.92796 10.703 6.87833 10.6307 6.8441 10.5507C6.80987 10.4708 6.79171 10.3849 6.79067 10.298C6.79067 9.936 7.09061 9.643 7.46053 9.643H17.7275L16.1698 8.085C16.0443 7.96232 15.9726 7.7948 15.9706 7.61928C15.9685 7.44375 16.0362 7.27459 16.1588 7.149C16.2844 7.02636 16.4535 6.95863 16.629 6.96069C16.8045 6.96275 16.972 7.03444 17.0946 7.16V7.16Z" fill="#FEFEFE"/>
</svg>
