<svg width="34" height="33" viewBox="0 0 34 33" fill="none" xmlns="http://www.w3.org/2000/svg">
<path d="M2.58233 0.178869L32.9739 14.8571C33.2811 15.0052 33.5405 15.2381 33.7221 15.5289C33.9036 15.8196 34 16.1564 34 16.5001C34 16.8439 33.9036 17.1806 33.7221 17.4714C33.5405 17.7621 33.2811 17.995 32.9739 18.1432L2.58233 32.8214C2.27078 32.9721 1.92291 33.0292 1.58012 32.986C1.23733 32.9428 0.914045 32.801 0.648737 32.5776C0.383429 32.3542 0.187263 32.0585 0.0835798 31.7257C-0.0201034 31.393 -0.0269391 31.0371 0.0638861 30.7005L3.10449 19.4439C3.14171 19.3059 3.21832 19.1821 3.32476 19.0878C3.43121 18.9935 3.56279 18.933 3.70309 18.9137L18.4301 16.8934C18.4916 16.8846 18.5499 16.8598 18.5992 16.8215C18.6485 16.7832 18.6871 16.7327 18.7114 16.6749L18.7373 16.5846C18.7487 16.5033 18.7325 16.4205 18.6914 16.3496C18.6503 16.2787 18.5867 16.224 18.5109 16.1942L18.4315 16.1724L3.71895 14.1521C3.57891 14.1325 3.44765 14.0718 3.34148 13.9776C3.23531 13.8833 3.15892 13.7596 3.12179 13.6219L0.0638861 2.30114C-0.027307 1.96447 -0.0207495 1.60842 0.0827775 1.2754C0.186304 0.942383 0.382438 0.646433 0.647816 0.422801C0.913195 0.199169 1.23663 0.0572791 1.57961 0.0140315C1.92259 -0.0292162 2.27065 0.0280012 2.58233 0.178869V0.178869Z" fill="#60B2E5"/>
</svg>
